<svg width="274" height="274" viewBox="0 0 274 274" fill="none" xmlns="http://www.w3.org/2000/svg">
<g clip-path="url(#clip0)">
<path d="M166.606 222.875C182.449 221.918 193.819 208.768 193.885 194.055C210.288 190.23 219.862 173.354 215.052 157.411C233.403 146.734 234.574 119.648 216.097 108.095C228.788 94.5838 225.844 72.6561 209.799 63.3928L190.533 52.2692C179.457 45.8745 166.109 44.609 153.911 48.7981L106.045 65.2351C103.962 65.9505 103.552 65.1987 94.3069 59.8608C88.3282 56.4091 80.6833 58.4575 77.2315 64.4361L28.0128 149.686C24.561 155.664 26.6095 163.309 32.5881 166.761C40.5423 171.353 43.1871 172.422 46.1438 176.383L71.4903 210.338C75.096 215.169 79.5654 219.142 84.7737 222.149L123.489 244.501C141.364 254.822 164.091 243.444 166.606 222.875V222.875ZM94.1487 205.911C91.1675 204.193 88.5698 201.882 86.5157 199.122L61.1695 165.167C58.0736 161.021 54.2383 157.61 49.7695 155.03L47.3758 153.648L90.3445 79.2238L93.8242 81.2328C99.362 84.43 106.036 85.0629 112.135 82.9684L160.001 66.5311C167.068 64.1044 174.78 64.8248 181.158 68.5074L200.425 79.631C211.659 86.1169 201.614 103.772 190.04 97.0899L176.092 89.0376C175.319 88.5909 174.458 88.3152 173.569 88.2292C172.68 88.1432 171.782 88.2488 170.937 88.539L167.508 89.7166C166.374 90.1061 165.376 90.8139 164.633 91.7553C163.889 92.6968 163.433 93.8322 163.317 95.026C163.202 96.2199 163.432 97.4217 163.981 98.4882C164.53 99.5546 165.374 100.441 166.413 101.04L205.848 123.808C217.045 130.273 207.101 147.986 195.463 141.267L186.413 136.042C183.424 134.317 179.602 135.341 177.876 138.33L176.509 140.698C174.783 143.687 175.807 147.51 178.796 149.236L192.715 157.271C203.924 163.743 193.95 181.44 182.329 174.73L168.64 166.827C165.651 165.101 161.828 166.125 160.102 169.115L158.735 171.483C157.009 174.472 158.034 178.294 161.023 180.02L170.302 185.377C181.476 191.829 171.573 209.566 159.917 202.836L150.867 197.612C147.878 195.886 144.055 196.91 142.329 199.899L140.962 202.267C139.236 205.257 140.261 209.079 143.25 210.805C154.463 217.279 144.464 234.961 132.864 228.264L94.1487 205.911V205.911Z" fill="white"/>
</g>
<defs>
<clipPath id="clip0">
<rect width="200" height="200" fill="white" transform="translate(273.205 100) rotate(120)"/>
</clipPath>
</defs>
</svg>
