<svg width="274" height="274" viewBox="0 0 274 274" fill="none" xmlns="http://www.w3.org/2000/svg">
<g clip-path="url(#clip0)">
<path d="M92.8525 212.38L69.1747 198.703C67.4447 197.705 65.8275 196.508 64.3693 195.149L29.4699 162.629C20.5664 154.333 18.5508 141.074 24.5553 130.674L64.7314 61.0869C69.3887 53.0204 78.1142 48.087 87.5026 48.2125L131.368 48.7967C146.77 49.0013 155.26 59.9637 157.734 75.1749L217.652 84.6191C233.316 87.0869 244.194 101.624 241.96 117.237C239.715 132.92 225.033 143.716 209.195 141.221L178.872 132.139L212.457 147.406C226.261 155.376 231.082 172.959 223.205 186.602C215.328 200.245 197.69 204.862 183.886 196.892L154.24 179.776C150.357 189.372 141.281 195.431 131.28 195.841C127.467 212.85 108.061 221.16 92.8525 212.38ZM102.23 196.137C110.741 201.051 117.87 188.673 109.372 183.767C106.383 182.041 105.358 178.219 107.084 175.229L108.423 172.91C110.149 169.921 113.972 168.896 116.961 170.622L126.433 176.091C134.944 181.005 142.074 168.628 133.575 163.721L124.103 158.252C121.114 156.526 120.089 152.704 121.815 149.715L123.155 147.395C124.88 144.406 128.703 143.382 131.692 145.108L193.261 180.654C204.909 187.379 214.71 170.359 203.082 163.645L141.513 128.098C138.523 126.372 137.499 122.55 139.225 119.56L141.497 115.625C142.128 114.531 143.077 113.654 144.217 113.11C145.356 112.566 146.635 112.38 147.882 112.576L212.115 122.695C225.16 124.75 228.238 105.263 214.737 103.136L145.877 92.2888C144.577 92.0839 143.374 91.4737 142.441 90.5452C141.508 89.6168 140.892 88.4174 140.681 87.1181L138.522 73.8529C137.946 70.3052 134.762 67.5937 131.119 67.5451L87.2526 66.9611C84.6438 66.9266 82.2362 68.2678 80.9692 70.4623L40.7932 140.049C39.1348 142.922 39.7342 146.566 42.2511 148.911L77.1513 181.432C77.5769 181.828 78.0459 182.175 78.5495 182.466L102.23 196.137Z" fill="white"/>
</g>
<defs>
<clipPath id="clip0">
<rect width="200" height="200" fill="white" transform="matrix(-0.866025 -0.5 -0.5 0.866025 273.205 100)"/>
</clipPath>
</defs>
</svg>
