<svg width="274" height="274" viewBox="0 0 274 274" fill="none" xmlns="http://www.w3.org/2000/svg">
<g clip-path="url(#clip0)">
<path d="M106.599 222.875C90.7563 221.918 79.3866 208.768 79.3198 194.055C62.9175 190.23 53.3433 173.354 58.1534 157.411C39.8018 146.734 38.631 119.648 57.1081 108.095C44.4173 94.5838 47.3611 72.6561 63.4056 63.3928L82.6723 52.2692C93.7483 45.8745 107.096 44.609 119.294 48.7981L167.16 65.2351C169.243 65.9505 169.653 65.1987 178.898 59.8608C184.877 56.4091 192.522 58.4575 195.974 64.4361L245.192 149.686C248.644 155.664 246.596 163.309 240.617 166.761C232.663 171.353 230.018 172.422 227.061 176.383L201.715 210.338C198.109 215.169 193.64 219.142 188.431 222.149L149.716 244.501C131.841 254.822 109.115 243.444 106.599 222.875V222.875ZM179.056 205.911C182.038 204.193 184.635 201.882 186.689 199.122L212.036 165.167C215.131 161.021 218.967 157.61 223.436 155.03L225.829 153.648L182.861 79.2238L179.381 81.2328C173.843 84.43 167.169 85.0629 161.07 82.9684L113.204 66.5311C106.137 64.1044 98.4254 64.8248 92.047 68.5074L72.7803 79.631C61.5463 86.1169 71.5912 103.772 83.1655 97.0899L97.1126 89.0376C97.8863 88.5909 98.7468 88.3152 99.636 88.2292C100.525 88.1432 101.423 88.2488 102.268 88.539L105.697 89.7166C106.831 90.1061 107.829 90.8139 108.573 91.7553C109.316 92.6968 109.772 93.8322 109.888 95.026C110.003 96.2199 109.773 97.4217 109.224 98.4882C108.675 99.5546 107.831 100.441 106.792 101.04L67.3567 123.808C56.1603 130.273 66.1041 147.986 77.742 141.267L86.7916 136.042C89.7808 134.317 93.6035 135.341 95.3293 138.33L96.6965 140.698C98.4223 143.687 97.398 147.51 94.4088 149.236L80.4905 157.271C69.2816 163.743 79.2548 181.44 90.8758 174.73L104.565 166.827C107.554 165.101 111.377 166.125 113.103 169.115L114.47 171.483C116.196 174.472 115.171 178.294 112.182 180.02L102.903 185.377C91.7295 191.829 101.632 209.566 113.289 202.836L122.338 197.612C125.327 195.886 129.15 196.91 130.876 199.899L132.243 202.267C133.969 205.257 132.944 209.079 129.955 210.805C118.742 217.279 128.741 234.961 140.341 228.264L179.056 205.911V205.911Z" fill="white"/>
</g>
<defs>
<clipPath id="clip0">
<rect width="200" height="200" fill="white" transform="matrix(0.5 0.866025 0.866025 -0.5 0 100)"/>
</clipPath>
</defs>
</svg>
