<svg width="274" height="274" viewBox="0 0 274 274" fill="none" xmlns="http://www.w3.org/2000/svg">
<g clip-path="url(#clip0)">
<path d="M180.353 212.38L204.03 198.703C205.76 197.705 207.378 196.508 208.836 195.149L243.735 162.629C252.639 154.333 254.654 141.074 248.65 130.674L208.474 61.0869C203.816 53.0204 195.091 48.087 185.702 48.2125L141.837 48.7967C126.435 49.0013 117.945 59.9637 115.471 75.1749L55.553 84.6191C39.8887 87.0869 29.0106 101.624 31.2453 117.237C33.4897 132.92 48.1722 143.716 64.0104 141.221L94.3329 132.139L60.7482 147.406C46.9446 155.376 42.1231 172.959 49.9998 186.602C57.8768 200.245 75.5151 204.862 89.3187 196.892L118.965 179.776C122.848 189.372 131.924 195.431 141.925 195.841C145.738 212.85 165.144 221.16 180.353 212.38ZM170.975 196.137C162.464 201.051 155.335 188.673 163.833 183.767C166.823 182.041 167.847 178.219 166.121 175.229L164.782 172.91C163.056 169.921 159.233 168.896 156.244 170.622L146.772 176.091C138.261 181.005 131.131 168.628 139.63 163.721L149.102 158.252C152.091 156.526 153.116 152.704 151.39 149.715L150.051 147.395C148.325 144.406 144.502 143.382 141.513 145.108L79.9439 180.654C68.2965 187.379 58.4946 170.359 70.1234 163.645L131.692 128.098C134.682 126.372 135.706 122.55 133.98 119.56L131.708 115.625C131.077 114.531 130.128 113.654 128.988 113.11C127.849 112.566 126.571 112.38 125.323 112.576L61.0901 122.695C48.0452 124.75 44.9674 105.263 58.4683 103.136L127.328 92.2888C128.628 92.0839 129.831 91.4737 130.764 90.5452C131.697 89.6168 132.313 88.4174 132.525 87.1181L134.683 73.8529C135.259 70.3052 138.443 67.5937 142.086 67.5451L185.952 66.9611C188.561 66.9266 190.969 68.2678 192.236 70.4623L232.412 140.049C234.07 142.922 233.471 146.566 230.954 148.911L196.054 181.432C195.628 181.828 195.159 182.175 194.656 182.466L170.975 196.137Z" fill="white"/>
</g>
<defs>
<clipPath id="clip0">
<rect width="200" height="200" fill="white" transform="translate(0 100) rotate(-30)"/>
</clipPath>
</defs>
</svg>
