<svg width="274" height="274" viewBox="0 0 274 274" fill="none" xmlns="http://www.w3.org/2000/svg">
<g clip-path="url(#clip0)">
<path d="M151.937 222.043L155.599 224.157C170.352 232.675 190.587 223.47 196.308 204.854C218.774 204.614 233.362 177.745 222.39 159.094C235.177 145.197 233.705 123.148 218.801 114.543L176.133 89.9083C183.099 83.6447 187.514 74.1545 186.989 64.1733C186.168 48.5671 173.554 37.9649 158.724 40.3541L74.9722 53.8427C72.9065 54.1756 70.8883 55.0256 69.086 56.322C67.2837 57.6184 65.7493 59.3235 64.6109 61.2954L14.8571 147.471C11.5303 153.234 12.1246 160.243 16.2909 164.373L53.8553 201.621C58.152 205.88 62.9454 209.545 68.1441 212.548L112.651 238.244C126.392 246.178 144.935 238.572 151.937 222.043ZM78.8594 193.99C74.8909 191.698 71.2178 188.89 67.9428 185.643L33.9374 151.924L79.0088 73.8582L159.423 60.9027C169.503 59.2793 170.54 75.0656 160.509 76.6821L141.572 79.7329C135.293 80.7446 132.965 89.7289 138.232 92.7699L208.087 133.101C216.762 138.11 208.317 152.086 199.69 147.105L147.827 117.162C144.837 115.436 140.815 116.806 138.843 120.223L137.313 122.873C135.34 126.29 136.164 130.458 139.154 132.184L203.091 169.098C211.772 174.111 203.321 188.083 194.694 183.102L130.991 146.323C128.001 144.597 123.979 145.968 122.006 149.384L120.476 152.035C118.504 155.451 119.328 159.62 122.317 161.346L174.71 191.595C183.395 196.609 174.94 210.579 166.313 205.598L114.154 175.484C111.165 173.758 107.143 175.129 105.17 178.545L103.64 181.196C101.667 184.613 102.491 188.781 105.481 190.507L131.296 205.411C140.173 210.537 131.806 224.558 123.366 219.685L78.8598 193.989L78.8594 193.99Z" fill="#ECF0F1"/>
</g>
<defs>
<clipPath id="clip0">
<rect width="200" height="200" fill="white" transform="translate(273.205 100) rotate(120)"/>
</clipPath>
</defs>
</svg>
