<svg width="274" height="274" viewBox="0 0 274 274" fill="none" xmlns="http://www.w3.org/2000/svg">
<g clip-path="url(#clip0)">
<path d="M121.268 222.043L117.606 224.157C102.853 232.675 82.6178 223.47 76.8972 204.854C54.431 204.614 39.843 177.745 50.8146 159.094C38.0276 145.197 39.5004 123.148 54.4038 114.543L97.0725 89.9083C90.1062 83.6447 85.6911 74.1545 86.2157 64.1733C87.0366 48.5671 99.6509 37.9649 114.481 40.3541L198.233 53.8427C200.299 54.1756 202.317 55.0256 204.119 56.322C205.921 57.6184 207.456 59.3235 208.594 61.2954L258.348 147.471C261.675 153.234 261.08 160.243 256.914 164.373L219.35 201.621C215.053 205.88 210.26 209.545 205.061 212.548L160.554 238.244C146.813 246.178 128.271 238.572 121.268 222.043ZM194.346 193.99C198.314 191.698 201.987 188.89 205.262 185.643L239.268 151.924L194.196 73.8582L113.782 60.9027C103.702 59.2793 102.665 75.0656 112.696 76.6821L131.633 79.7329C137.913 80.7446 140.24 89.7289 134.973 92.7699L65.1181 133.101C56.4426 138.11 64.8883 152.086 73.515 147.105L125.378 117.162C128.368 115.436 132.39 116.806 134.362 120.223L135.893 122.873C137.865 126.29 137.041 130.458 134.051 132.184L70.1143 169.098C61.4327 174.111 69.8845 188.083 78.5112 183.102L142.214 146.323C145.204 144.597 149.226 145.968 151.199 149.384L152.729 152.035C154.701 155.451 153.877 159.62 150.888 161.346L98.4949 191.595C89.8103 196.609 98.2648 210.579 106.892 205.598L159.051 175.484C162.04 173.758 166.062 175.129 168.035 178.545L169.565 181.196C171.538 184.613 170.714 188.781 167.724 190.507L141.909 205.411C133.032 210.537 141.399 224.558 149.839 219.685L194.345 193.989L194.346 193.99Z" fill="#ECF0F1"/>
</g>
<defs>
<clipPath id="clip0">
<rect width="200" height="200" fill="white" transform="matrix(0.5 0.866025 0.866025 -0.5 0 100)"/>
</clipPath>
</defs>
</svg>
